HIERARCHY
ROOT Hips
{
	OFFSET 0.00000 0.00000 0.00000
	CHANNELS 6 Xposition Yposition Zposition Yrotation Zrotation Xrotation 
	JOINT Lumbar
	{
		OFFSET 0 0 0
		CHANNELS 3 Zrotation Xrotation Yrotation
		JOINT Neck
		{
			OFFSET 0.00 0.2701 0.00
			CHANNELS 3 Zrotation Xrotation Yrotation
			End Site
			{
				OFFSET 0.00 0.1379 0.00
			}
		}
		JOINT RightShoulder
		{
			OFFSET 0.0119 0.2289 0.1181
			CHANNELS 3 Zrotation Xrotation Yrotation
			JOINT RightElbow
			{
				OFFSET 0.00 -0.1475 0.00
				CHANNELS 2 Zrotation Yrotation
				JOINT RightWrist
				{
					OFFSET 0.00 -0.1605 0.00
					CHANNELS 2 Zrotation Xrotation
					End Site
					{
						OFFSET 0.0040 -0.1068 0.0006
					}
				}
			}
		}
		JOINT LeftShoulder
		{
			OFFSET 0.0119 0.2289 -0.1181
			CHANNELS 3 Zrotation Xrotation Yrotation
			JOINT LeftElbow
			{
				OFFSET 0.00 -0.1475 0.00
				CHANNELS 2 Zrotation Yrotation
				JOINT LeftWrist
				{
					OFFSET 0.00 -0.1605 0.00
					CHANNELS 2 Zrotation Xrotation
					End Site
					{
						OFFSET 0.0040 -0.1068 -0.0006
					}
				}
			}
		}
	}
	JOINT RightHip
	{
		OFFSET 0.0316 -0.0424 0.0458
		CHANNELS 3 Zrotation Xrotation Yrotation
		JOINT RightKnee
		{
			OFFSET 0.00 -0.2438 0.00
			CHANNELS 1 Zrotation
			JOINT RightAnkle
			{
				OFFSET 0.00 -0.2449 0.00
				CHANNELS 3 Zrotation Xrotation Yrotation
				End Site
				{
					OFFSET 0.1237 -0.0542 0.0051
				}
			}
		}
	}
	JOINT LeftHip
	{
		OFFSET 0.0316 -0.0424 -0.0458
		CHANNELS 3 Zrotation Xrotation Yrotation
		JOINT LeftKnee
		{
			OFFSET 0.00 -0.2438 0.00
			CHANNELS 1 Zrotation
			JOINT LeftAnkle
			{
				OFFSET 0.00 -0.2449 0.00
				CHANNELS 3 Zrotation Xrotation Yrotation
				End Site
				{
					OFFSET 0.1237 -0.0542 -0.0051
				}
			}
		}
	}
}
MOTION
Frames: 25
Frame Time: 0.02
-8e-05 2e-05 9e-05 -179.96336 -39.59784 -2.82885 47.7644 3.08063 -1.86511 -10.90438 -2.0724 -0.60521 70.95112 -101.33722 55.63336 5.78747 95.75362 11.56688 0.24258 44.49966 101.0127 -55.6281 6.44121 -91.33253 10.01974 0.32431 44.69194 -6.17052 -6.65516 -22.01084 -6.90011 -2.32766 -3.35337 48.768 9.27656 3.43744 -27.14493 -6.91782 1.92124 3.18416
-0.0001 1e-05 6e-05 -179.93947 -39.59607 -2.83255 47.75272 3.073 -1.86606 -10.9019 -2.07621 -0.60599 71.23142 -101.32292 55.63344 5.78742 95.77259 11.55732 0.28979 44.62118 100.99679 -55.6287 6.43184 -91.382 10.02244 0.31178 44.67657 -6.19812 -6.844 -22.01245 -6.89676 -2.3047 -3.3445 48.76913 9.29512 3.47994 -27.14859 -6.91744 1.91389 3.18033
-0.00013 -0 2e-05 -179.91563 -39.59432 -2.83624 47.74109 3.06539 -1.86697 -10.89943 -2.08001 -0.60676 71.51079 -101.30869 55.63351 5.78737 95.79151 11.5478 0.33685 44.74245 100.9809 -55.62929 6.42247 -91.43133 10.02512 0.29926 44.66125 -6.22567 -7.03246 -22.01405 -6.89342 -2.28179 -3.33565 48.77027 9.31372 3.52269 -27.15223 -6.91706 1.90652 3.17649
-0.00016 -1e-05 -1e-05 -179.89182 -39.59256 -2.83993 47.72945 3.05779 -1.86791 -10.89695 -2.08381 -0.60753 71.79022 -101.29444 55.63359 5.78731 95.81043 11.53827 0.38391 44.86361 100.96503 -55.62989 6.41313 -91.48065 10.0278 0.28677 44.64593 -6.2532 -7.22076 -22.01565 -6.89008 -2.2589 -3.32681 48.77141 9.33224 3.56515 -27.15588 -6.91668 1.89919 3.17267
-0.00018 -2e-05 -4e-05 -179.86796 -39.59077 -2.84364 47.71774 3.05018 -1.86889 -10.89444 -2.08759 -0.60831 72.07059 -101.28012 55.63366 5.78726 95.82941 11.52871 0.43112 44.98501 100.94917 -55.63048 6.40377 -91.53013 10.0305 0.27425 44.63055 -6.28075 -7.40931 -22.01726 -6.88673 -2.23597 -3.31795 48.77252 9.35068 3.60716 -27.15955 -6.91629 1.89191 3.16886
-0.00021 -3e-05 -7e-05 -179.84416 -39.58913 -2.84728 47.70626 3.04258 -1.86965 -10.89207 -2.09144 -0.60908 72.34782 -101.26607 55.63373 5.7872 95.84818 11.51927 0.47783 45.10603 100.93322 -55.63107 6.39439 -91.57912 10.03316 0.26175 44.61536 -6.3083 -7.59756 -22.01884 -6.8834 -2.2131 -3.30912 48.77373 9.36959 3.65142 -27.16315 -6.91593 1.88436 3.16495
-0.00024 -4e-05 -0.0001 -179.82028 -39.58718 -2.85104 47.69435 3.03496 -1.87087 -10.88942 -2.09516 -0.60986 72.6311 -101.25149 55.63381 5.78715 95.86735 11.50961 0.52552 45.22759 100.91747 -55.63168 6.38507 -91.62903 10.03588 0.24924 44.59981 -6.33584 -7.78629 -22.02048 -6.88004 -2.19012 -3.30024 48.77474 9.38757 3.69126 -27.16687 -6.91552 1.87734 3.16125
-0.00026 -5e-05 -0.00014 -179.79647 -39.58551 -2.8547 47.68282 3.02736 -1.87166 -10.88704 -2.099 -0.61063 72.90875 -101.23738 55.63389 5.78709 95.88616 11.50014 0.57228 45.3488 100.90152 -55.63227 6.37569 -91.67812 10.03857 0.23673 44.58458 -6.36336 -7.97444 -22.02207 -6.87671 -2.16726 -3.29141 48.77593 9.40635 3.73492 -27.17049 -6.91515 1.86986 3.15737
-0.00029 -6e-05 -0.00017 -179.77273 -39.58423 -2.85822 47.67181 3.01976 -1.87194 -10.88494 -2.10298 -0.61141 73.17982 -101.22395 55.63395 5.78705 95.90452 11.49091 0.61799 45.46908 100.88535 -55.63283 6.36626 -91.72612 10.0411 0.22423 44.56978 -6.39101 -8.16254 -22.02357 -6.87339 -2.14448 -3.2826 48.77736 9.42637 3.78432 -27.17398 -6.91484 1.86171 3.1532
-0.00032 -7e-05 -0.0002 -179.74855 -39.58084 -2.86251 47.658 3.0121 -1.87518 -10.88108 -2.10615 -0.61217 73.48966 -101.2069 55.63406 5.78697 95.92543 11.48033 0.67001 45.5932 100.87052 -55.63353 6.35717 -91.78013 10.0442 0.2117 44.55263 -6.41835 -8.35293 -22.02551 -6.86995 -2.12106 -3.27358 48.77748 9.44003 3.80393 -27.17817 -6.91421 1.85708 3.15051
-0.00034 -8e-05 -0.00023 -179.72533 -39.58181 -2.8652 47.64997 3.0046 -1.87218 -10.88102 -2.11103 -0.61296 73.71709 -101.19733 55.63407 5.78696 95.941 11.47259 0.70857 45.71017 100.85282 -55.63394 6.34733 -91.82161 10.0463 0.19921 44.54038 -6.44607 -8.53716 -22.02656 -6.86678 -2.09911 -3.26506 48.78032 9.46662 3.88429 -27.18091 -6.91424 1.84524 3.1448
-0.00037 -8e-05 -0.00026 -179.70437 -39.59573 -2.86318 47.65888 2.99731 -1.85172 -10.89082 -2.12076 -0.61384 73.72144 -101.20963 55.63378 5.78714 95.94161 11.47271 0.71108 45.79961 100.82748 -55.63353 6.33574 -91.82718 10.04389 0.18712 44.54208 -6.4772 -8.71549 -22.02495 -6.86427 -2.08011 -3.2574 48.79118 9.53307 4.15072 -27.17936 -6.91623 1.81166 3.12991
-0.0004 -8e-05 -0.00028 -179.68442 -39.61387 -2.8596 47.67339 2.99022 -1.82505 -10.90455 -2.13218 -0.61474 73.64269 -101.22917 55.63339 5.78739 95.93695 11.47564 0.69992 45.88337 100.79919 -55.63283 6.32335 -91.82046 10.04075 0.17501 44.54861 -6.50832 -8.88575 -22.02249 -6.86204 -2.06279 -3.25032 48.80469 9.61174 4.47476 -27.17639 -6.91884 1.77121 3.11215
-0.00042 -8e-05 -0.0003 -179.66427 -39.62945 -2.85695 47.68459 2.98322 -1.80142 -10.91686 -2.14276 -0.61563 73.59967 -101.24448 55.63306 5.7876 95.93489 11.47728 0.69438 45.97489 100.77211 -55.63229 6.31111 -91.82032 10.03915 0.16273 44.55259 -6.53786 -9.05231 -22.02057 -6.85973 -2.04542 -3.24331 48.81664 9.68192 4.75953 -27.17426 -6.92106 1.73521 3.09631
-0.00045 -8e-05 -0.00032 -179.64313 -39.64772 -2.85341 47.69897 2.97551 -1.77683 -10.92759 -2.1537 -0.61651 73.56412 -101.26376 55.63268 5.78785 95.93189 11.47911 0.6912 46.04446 100.74566 -55.63165 6.29974 -91.81589 10.03265 0.15124 44.55808 -6.57392 -9.2493 -22.01799 -6.85721 -2.02506 -3.2349 48.83008 9.76434 5.09887 -27.17135 -6.92375 1.69362 3.07793
-0.00048 -8e-05 -0.00035 -179.62415 -39.66144 -2.85132 47.70814 2.96927 -1.75281 -10.94256 -2.16425 -0.61742 73.49451 -101.2765 55.63237 5.78804 95.92971 11.48104 0.68 46.1585 100.71708 -55.63113 6.28641 -91.81757 10.03593 0.13806 44.56158 -6.59658 -9.38185 -22.01659 -6.8552 -2.01129 -3.22953 48.84109 9.82438 5.3392 -27.1697 -6.92562 1.662 3.06411
-0.0005 -9e-05 -0.00037 -179.61207 -39.66099 -2.85401 47.70081 2.96763 -1.73154 -10.96827 -2.17347 -0.61839 73.3413 -101.26947 55.63232 5.78809 95.93009 11.48404 0.64891 46.39627 100.68432 -55.63106 6.26762 -91.83846 10.06823 0.12055 44.55833 -6.58068 -9.33096 -22.01854 -6.85457 -2.01558 -3.23256 48.84436 9.81764 5.28299 -27.1721 -6.92507 1.66007 3.06385
-0.00051 -0.0001 -0.0004 -179.60193 -39.65591 -2.85817 47.68818 2.96738 -1.7111 -10.99812 -2.18221 -0.6194 73.15853 -101.25562 55.63235 5.78809 95.9316 11.48674 0.6103 46.67928 100.64933 -55.63111 6.24708 -91.86601 10.10986 0.10131 44.55292 -6.55156 -9.21679 -22.02171 -6.85443 -2.0264 -3.23858 48.84516 9.78832 5.12675 -27.17578 -6.92369 1.66833 3.06822
-0.00053 -0.0001 -0.00042 -179.59009 -39.65334 -2.86139 47.67848 2.96608 -1.69058 -11.02607 -2.19106 -0.6204 72.99587 -101.24486 55.63235 5.78808 95.93338 11.48865 0.57605 46.94164 100.61469 -55.63111 6.22729 -91.89102 10.14627 0.08259 44.54858 -6.52953 -9.13663 -22.02439 -6.85404 -2.03407 -3.24313 48.84734 9.77064 5.02232 -27.17871 -6.92273 1.67161 3.0703
-0.00055 -0.00011 -0.00045 -179.58163 -39.64926 -2.86566 47.66682 2.96647 -1.66877 -11.05421 -2.20043 -0.62136 72.80229 -101.23435 55.63232 5.78812 95.93201 11.49468 0.53791 47.20336 100.58273 -55.63111 6.20706 -91.91371 10.18762 0.06484 44.54407 -6.50302 -9.03446 -22.02677 -6.85378 -2.0426 -3.24821 48.84855 9.74759 4.89338 -27.18227 -6.92162 1.6761 3.07309
-0.00057 -0.00012 -0.00048 -179.56672 -39.6471 -2.86815 47.65786 2.96375 -1.6497 -11.0829 -2.20856 -0.62242 72.66697 -101.22166 55.63238 5.78816 95.93713 11.49187 0.50557 47.47827 100.54475 -55.63113 6.18813 -91.94276 10.21985 0.04487 44.5393 -6.48258 -8.96269 -22.03005 -6.85335 -2.05084 -3.25286 48.8511 9.73015 4.79061 -27.18486 -6.92062 1.68059 3.07554
-0.00061 -0.00013 -0.00053 -179.53225 -39.6519 -2.86499 47.65807 2.95131 -1.6398 -11.11198 -2.21338 -0.62373 72.70199 -101.20409 55.63267 5.78776 95.96293 11.46592 0.49671 47.77043 100.49025 -55.63113 6.16694 -91.98927 10.23346 0.01745 44.53471 -6.48318 -8.99474 -22.03575 -6.85237 -2.05696 -3.25572 48.85853 9.73416 4.78762 -27.18424 -6.9202 1.68269 3.07595
-0.00066 -0.00014 -0.00059 -179.49146 -39.65867 -2.86006 47.6611 2.93584 -1.63233 -11.14151 -2.21694 -0.62514 72.79679 -101.18455 55.63305 5.78785 95.99437 11.43069 0.4927 48.07636 100.42989 -55.63111 6.14859 -92.04145 10.2358 -0.01179 44.52984 -6.49014 -9.05875 -22.04227 -6.85117 -2.06252 -3.25801 48.86726 9.74444 4.81356 -27.18264 -6.91991 1.68446 3.07587
-0.0007 -0.00015 -0.00064 -179.45436 -39.6642 -2.85622 47.66252 2.92229 -1.62257 -11.17086 -2.22105 -0.62651 72.86302 -101.16633 55.63339 5.78748 96.02173 11.39912 0.48318 48.38067 100.3725 -55.6312 6.13273 -92.09046 10.23766 -0.03906 44.52484 -6.49349 -9.10534 -22.04822 -6.85004 -2.06813 -3.26045 48.87499 9.75151 4.82395 -27.18165 -6.91953 1.68634 3.07604
-0.00074 -0.00016 -0.0007 -179.41382 -39.67105 -2.85128 47.66508 2.90651 -1.61778 -11.20009 -2.22526 -0.62787 72.93358 -101.14643 55.63376 5.78639 96.05691 11.37055 0.48845 48.66487 100.31364 -55.6311 6.09969 -92.14338 10.264 -0.0713 44.52085 -6.4994 -9.16211 -22.055 -6.84907 -2.07474 -3.26343 48.88439 9.75935 4.84098 -27.18005 -6.91926 1.68872 3.07628
